<svg width="450" height="450" viewBox="0 0 450 450" fill="none" xmlns="http://www.w3.org/2000/svg">
<path fill-rule="evenodd" clip-rule="evenodd" d="M62.3521 166.498C62.3521 153.952 72.5197 143.781 85.0621 143.781H208.345C220.887 143.781 231.055 153.952 231.055 166.498V382.857C231.055 395.403 220.887 405.574 208.345 405.574H85.0621C72.5197 405.574 62.3521 395.403 62.3521 382.857V166.498ZM85.0621 145.945C73.7142 145.945 64.5149 155.148 64.5149 166.498V382.857C64.5149 394.209 73.7142 403.41 85.0621 403.41H208.345C219.693 403.41 228.893 394.209 228.893 382.857V166.498C228.893 155.148 219.693 145.945 208.345 145.945H85.0621Z" fill="#F1F1F1"/>
<path fill-rule="evenodd" clip-rule="evenodd" d="M289.452 288.819L274.793 277.506C273.833 276.765 272.54 276.623 271.443 277.134L243.579 290.109C242.522 290.601 241.282 290.489 240.332 289.814L226.768 280.184C225.753 279.464 224.414 279.387 223.324 279.989L200.944 292.323C199.588 293.072 197.894 292.757 196.896 291.572L183.124 275.21C182.083 273.974 180.291 273.692 178.922 274.548L165.239 283.103C164.455 283.593 163.5 283.725 162.612 283.466L142.378 277.563V392.594C142.378 395.58 144.799 398.001 147.785 398.001H284.044C287.031 398.001 289.452 395.58 289.452 392.594V288.819Z" fill="#F1F1F1"/>
<path d="M171.576 75.6287H187.797V86.4467H171.576V75.6287Z" fill="#F1F1F1"/>
<path d="M99.1206 13.9668H193.204V81.0377H99.1206V13.9668Z" fill="#F15846"/>
<path d="M35.3164 138.372C35.3164 126.423 44.9999 116.737 56.9449 116.737H180.228C192.173 116.737 201.857 126.423 201.857 138.372V354.731C201.857 366.68 192.173 376.367 180.228 376.367H56.9449C44.9999 376.367 35.3164 366.68 35.3164 354.731V138.372Z" fill="#F1F1F1"/>
<path fill-rule="evenodd" clip-rule="evenodd" d="M34.2349 138.373C34.2349 125.826 44.4025 115.655 56.9449 115.655H180.228C192.77 115.655 202.938 125.826 202.938 138.373V354.731C202.938 367.277 192.77 377.448 180.228 377.448H56.9449C44.4025 377.448 34.2349 367.277 34.2349 354.731V138.373ZM56.9449 117.819C45.597 117.819 36.3977 127.021 36.3977 138.373V354.731C36.3977 366.083 45.597 375.283 56.9449 375.283H180.228C191.576 375.283 200.776 366.083 200.776 354.731V138.373C200.776 127.021 191.576 117.819 180.228 117.819H56.9449Z" fill="#3E3D3D"/>
<path fill-rule="evenodd" clip-rule="evenodd" d="M43.9678 121.062C47.5826 118.346 52.0759 116.737 56.9449 116.737H180.228C185.097 116.737 189.589 118.346 193.205 121.062V372.041C189.589 374.757 185.097 376.367 180.228 376.367H56.9449C52.0759 376.367 47.5826 374.757 43.9678 372.041V121.062Z" fill="white"/>
<path opacity="0.5" d="M56.9448 168.663C56.9448 165.675 59.3658 163.254 62.352 163.254H174.821C177.806 163.254 180.228 165.675 180.228 168.663V241.143C180.228 244.13 177.806 246.552 174.821 246.552H62.352C59.3658 246.552 56.9448 244.13 56.9448 241.143V168.663Z" fill="#F1F1F1"/>
<path d="M56.9448 268.187H88.3063V287.66H56.9448V268.187Z" fill="#F15846"/>
<path d="M101.283 268.187H132.645V287.66H101.283V268.187Z" fill="#F15846"/>
<path d="M145.622 268.187H180.228V287.66H145.622V268.187Z" fill="#F15846"/>
<path d="M56.9448 299.559H88.3063V319.031H56.9448V299.559Z" fill="#F15846"/>
<path d="M101.283 299.559H132.645V319.031H101.283V299.559Z" fill="#F15846"/>
<path d="M145.622 299.559H180.228V319.031H145.622V299.559Z" fill="#F15846"/>
<path d="M56.9448 332.013H88.3063V351.484H56.9448V332.013Z" fill="#F1F1F1"/>
<path d="M101.283 332.013H132.645V351.484H101.283V332.013Z" fill="#F15846"/>
<path d="M145.622 332.013H180.228V351.484H145.622V332.013Z" fill="#F1F1F1"/>
<path fill-rule="evenodd" clip-rule="evenodd" d="M34.2349 138.373C34.2349 125.826 44.4025 115.655 56.9449 115.655H180.228C192.77 115.655 202.938 125.826 202.938 138.373V354.731C202.938 367.277 192.77 377.448 180.228 377.448H56.9449C44.4025 377.448 34.2349 367.277 34.2349 354.731V138.373ZM56.9449 117.819C45.597 117.819 36.3977 127.021 36.3977 138.373V354.731C36.3977 366.083 45.597 375.283 56.9449 375.283H180.228C191.576 375.283 200.776 366.083 200.776 354.731V138.373C200.776 127.021 191.576 117.819 180.228 117.819H56.9449Z" fill="#3E3D3D"/>
<path d="M65.5962 69.138H171.576V143.781H65.5962V69.138Z" fill="#F1F1F1"/>
<path fill-rule="evenodd" clip-rule="evenodd" d="M171.576 69.138H65.5962V63.1881L65.6203 63.1615C65.6043 62.9923 65.5962 62.8207 65.5962 62.6472C65.5962 59.6599 68.017 57.2383 71.0032 57.2383H176.983L171.576 63.1881V69.138Z" fill="#F1F1F1"/>
<path d="M193.205 81.0377C193.205 84.0249 190.784 86.4467 187.797 86.4467C184.812 86.4467 182.39 84.0249 182.39 81.0377C182.39 78.0504 184.812 75.6287 187.797 75.6287C190.784 75.6287 193.205 78.0504 193.205 81.0377Z" fill="#F15846"/>
<path d="M182.39 62.6472C182.39 65.6346 179.97 68.0562 176.983 68.0562C173.997 68.0562 171.576 65.6346 171.576 62.6472C171.576 59.6599 173.997 57.2383 176.983 57.2383C179.97 57.2383 182.39 59.6599 182.39 62.6472Z" fill="#F1F1F1"/>
<path d="M171.576 62.6472H182.39V86.4465H171.576V62.6472Z" fill="#F1F1F1"/>
<path d="M65.5962 136.209H171.576V143.781H65.5962V136.209Z" fill="#F1F1F1"/>
<path fill-rule="evenodd" clip-rule="evenodd" d="M225.648 279.675V398.003H259.172V282.848L243.579 290.109C242.522 290.601 241.282 290.489 240.331 289.814L226.768 280.184C226.423 279.941 226.044 279.77 225.648 279.675Z" fill="white"/>
<path fill-rule="evenodd" clip-rule="evenodd" d="M401.266 230.676C402.341 233.463 400.954 236.595 398.167 237.669L292.152 278.571L297.427 260.818C297.774 259.656 297.442 258.399 296.569 257.557L274.441 236.22C273.602 235.411 273.261 234.213 273.548 233.083L277.649 216.958C277.956 215.751 277.545 214.476 276.592 213.675L257.034 197.226C255.849 196.228 255.533 194.535 256.278 193.177L266.582 174.433C267.361 173.017 266.98 171.246 265.689 170.275L252.786 160.582C252.046 160.027 251.578 159.183 251.5 158.26L249.727 137.253L345.243 100.401C348.029 99.3265 351.16 100.714 352.234 103.502L401.266 230.676Z" fill="#F1F1F1"/>
<path fill-rule="evenodd" clip-rule="evenodd" d="M277.721 215.731C277.775 216.133 277.754 216.55 277.651 216.958L273.55 233.083C273.262 234.214 273.604 235.411 274.442 236.22L286.826 248.161L392.318 207.462L380.254 176.173L277.721 215.731Z" fill="white"/>
<path d="M282.963 76.7106C282.963 94.9329 268.196 109.705 249.98 109.705C231.764 109.705 216.996 94.9329 216.996 76.7106C216.996 58.4882 231.764 43.716 249.98 43.716C268.196 43.716 282.963 58.4882 282.963 76.7106Z" fill="#F1F1F1"/>
<path d="M319.732 76.7106C319.732 70.4373 314.648 65.3519 308.377 65.3519C302.106 65.3519 297.022 70.4373 297.022 76.7106C297.022 82.9839 302.106 88.0694 308.377 88.0694C314.648 88.0694 319.732 82.9839 319.732 76.7106Z" fill="#F1F1F1"/>
<path fill-rule="evenodd" clip-rule="evenodd" d="M231.624 89.7211L262.987 58.3473L268.339 63.7018L236.975 95.0757L231.624 89.7211Z" fill="#F1F1F1"/>
<path fill-rule="evenodd" clip-rule="evenodd" d="M236.975 58.3476L268.339 89.7214L262.987 95.076L231.624 63.7021L236.975 58.3476Z" fill="#F1F1F1"/>
<path d="M407.327 415.851H308.918V430.997H407.327V415.851Z" fill="#F15846"/>
<path d="M419.223 401.789H320.813V415.851H419.223V401.789Z" fill="#F1F1F1"/>
<path d="M412.734 386.643H314.325V401.789H412.734V386.643Z" fill="#F1F1F1"/>
<path fill-rule="evenodd" clip-rule="evenodd" d="M0.169922 430.997C0.169922 430.4 0.654094 429.915 1.25135 429.915H431.12C431.717 429.915 432.201 430.4 432.201 430.997C432.201 431.594 431.717 432.078 431.12 432.078H1.25135C0.654094 432.078 0.169922 431.594 0.169922 430.997Z" fill="#3E3D3D"/>
<path fill-rule="evenodd" clip-rule="evenodd" d="M400.839 309.295H319.732V307.131H400.839V309.295ZM400.839 330.39H319.732V328.227H400.839V330.39ZM361.907 353.107H319.732V350.944H361.907V353.107Z" fill="#F1F1F1"/>
<path d="M153.733 205.984C153.733 226.297 137.271 242.765 116.964 242.765C96.6576 242.765 80.1958 226.297 80.1958 205.984C80.1958 185.671 96.6576 169.203 116.964 169.203C137.271 169.203 153.733 185.671 153.733 205.984Z" fill="#F15846"/>
<path fill-rule="evenodd" clip-rule="evenodd" d="M93.9912 222.847L133.822 183.003L139.939 189.123L100.109 228.967L93.9912 222.847Z" fill="white"/>
<path fill-rule="evenodd" clip-rule="evenodd" d="M100.109 183.003L139.939 222.847L133.822 228.967L93.9912 189.123L100.109 183.003Z" fill="white"/>
<path fill-rule="evenodd" clip-rule="evenodd" d="M155.895 81.5784H82.3584V79.4149H155.895V81.5784ZM155.895 100.51H82.3584V98.3461H155.895V100.51ZM155.895 117.818H82.3584V115.655H155.895V117.818Z" fill="#3E3D3D"/>
</svg>
